<mxfile host="Electron" agent="Mozilla/5.0 (X11; Linux x86_64) AppleWebKit/537.36 (KHTML, like Gecko) draw.io/27.0.9 Chrome/134.0.6998.205 Electron/35.4.0 Safari/537.36" version="27.0.9">
  <diagram id="xJVSN3ioyxnjVdcwHdhN" name="Page-1">
    <mxGraphModel dx="2062" dy="2424" grid="1" gridSize="10" guides="1" tooltips="1" connect="1" arrows="1" fold="1" page="1" pageScale="1" pageWidth="850" pageHeight="1100" math="0" shadow="0">
      <root>
        <mxCell id="0" />
        <mxCell id="1" parent="0" />
        <mxCell id="2LQokLUc8P4vaMHVYuuZ-10" value="application" style="rounded=0;whiteSpace=wrap;html=1;verticalAlign=bottom;align=right;fillColor=#e1d5e7;strokeColor=#9673a6;fontStyle=1;fontSize=14;" parent="1" vertex="1">
          <mxGeometry x="160" y="-159" width="520" height="90" as="geometry" />
        </mxCell>
        <mxCell id="2LQokLUc8P4vaMHVYuuZ-34" value="application.c" style="rounded=0;whiteSpace=wrap;html=1;verticalAlign=bottom;align=right;fillColor=#fff2cc;strokeColor=#d6b656;fontStyle=1;fontSize=14;" parent="1" vertex="1">
          <mxGeometry x="190" y="-142" width="360" height="60" as="geometry" />
        </mxCell>
        <mxCell id="2LQokLUc8P4vaMHVYuuZ-1" value="bootstrap" style="rounded=0;whiteSpace=wrap;html=1;verticalAlign=bottom;align=right;fillColor=#e1d5e7;strokeColor=#9673a6;fontStyle=1;fontSize=14;" parent="1" vertex="1">
          <mxGeometry x="160" y="180" width="520" height="230" as="geometry" />
        </mxCell>
        <mxCell id="2LQokLUc8P4vaMHVYuuZ-2" value="vectors.S" style="rounded=0;whiteSpace=wrap;html=1;verticalAlign=bottom;align=right;fillColor=#fff2cc;strokeColor=#d6b656;fontStyle=1;fontSize=14;" parent="1" vertex="1">
          <mxGeometry x="190" y="200" width="140" height="170" as="geometry" />
        </mxCell>
        <mxCell id="2LQokLUc8P4vaMHVYuuZ-3" value="link_imem_boot&lt;br&gt;.ld" style="rounded=0;whiteSpace=wrap;html=1;verticalAlign=middle;fillColor=#fff2cc;strokeColor=#d6b656;fontStyle=1;fontSize=14;" parent="1" vertex="1">
          <mxGeometry x="520" y="200" width="140" height="70" as="geometry" />
        </mxCell>
        <mxCell id="2LQokLUc8P4vaMHVYuuZ-4" value="stdio_to_uart.c" style="rounded=0;whiteSpace=wrap;html=1;verticalAlign=bottom;fillColor=#fff2cc;strokeColor=#d6b656;fontStyle=1;fontSize=14;" parent="1" vertex="1">
          <mxGeometry x="357.5" y="200" width="150" height="100" as="geometry" />
        </mxCell>
        <mxCell id="2LQokLUc8P4vaMHVYuuZ-5" value="picolibc" style="rounded=0;whiteSpace=wrap;html=1;verticalAlign=bottom;align=right;fillColor=#e1d5e7;strokeColor=#9673a6;fontStyle=1;fontSize=14;" parent="1" vertex="1">
          <mxGeometry x="160" y="-30" width="520" height="190" as="geometry" />
        </mxCell>
        <mxCell id="2LQokLUc8P4vaMHVYuuZ-6" value="rv32imc_zicsr" style="rounded=0;whiteSpace=wrap;html=1;verticalAlign=bottom;align=right;fillColor=#f8cecc;strokeColor=#b85450;fontStyle=1;fontSize=14;" parent="1" vertex="1">
          <mxGeometry x="180" y="-20" width="320" height="170" as="geometry" />
        </mxCell>
        <mxCell id="2LQokLUc8P4vaMHVYuuZ-7" value="picolibc.specs" style="rounded=0;whiteSpace=wrap;html=1;verticalAlign=middle;fillColor=#fff2cc;strokeColor=#d6b656;fontStyle=1;fontSize=14;" parent="1" vertex="1">
          <mxGeometry x="520" y="60" width="120" height="60" as="geometry" />
        </mxCell>
        <mxCell id="2LQokLUc8P4vaMHVYuuZ-8" value="crt0.o" style="rounded=0;whiteSpace=wrap;html=1;verticalAlign=bottom;align=right;fillColor=#fff2cc;strokeColor=#d6b656;fontStyle=1;fontSize=14;" parent="1" vertex="1">
          <mxGeometry x="200" y="-10" width="120" height="130" as="geometry" />
        </mxCell>
        <mxCell id="2LQokLUc8P4vaMHVYuuZ-9" value="libc.a" style="rounded=0;whiteSpace=wrap;html=1;verticalAlign=bottom;fillColor=#fff2cc;strokeColor=#d6b656;fontStyle=1;fontSize=14;" parent="1" vertex="1">
          <mxGeometry x="360" y="-10" width="120" height="130" as="geometry" />
        </mxCell>
        <mxCell id="2LQokLUc8P4vaMHVYuuZ-11" value="main()" style="rounded=0;whiteSpace=wrap;html=1;fillColor=#f5f5f5;strokeColor=#666666;fontColor=#333333;fontStyle=1;fontSize=14;" parent="1" vertex="1">
          <mxGeometry x="350" y="-127" width="100" height="30" as="geometry" />
        </mxCell>
        <mxCell id="2LQokLUc8P4vaMHVYuuZ-12" value="_init()" style="rounded=0;whiteSpace=wrap;html=1;fillColor=#f5f5f5;strokeColor=#666666;fontColor=#333333;fontStyle=1;fontSize=14;" parent="1" vertex="1">
          <mxGeometry x="220" y="-127" width="100" height="30" as="geometry" />
        </mxCell>
        <mxCell id="2LQokLUc8P4vaMHVYuuZ-13" value="_start" style="rounded=0;whiteSpace=wrap;html=1;fillColor=#f5f5f5;strokeColor=#666666;fontColor=#333333;fontStyle=1;fontSize=14;" parent="1" vertex="1">
          <mxGeometry x="210" y="35" width="100" height="30" as="geometry" />
        </mxCell>
        <mxCell id="2LQokLUc8P4vaMHVYuuZ-14" value="_reset_handler" style="rounded=0;whiteSpace=wrap;html=1;fillColor=#f5f5f5;strokeColor=#666666;fontColor=#333333;fontStyle=1;fontSize=14;" parent="1" vertex="1">
          <mxGeometry x="200" y="210" width="120" height="30" as="geometry" />
        </mxCell>
        <mxCell id="2LQokLUc8P4vaMHVYuuZ-15" value="Reset Vector&lt;br style=&quot;font-size: 14px;&quot;&gt;(offset 0x80)" style="rounded=0;whiteSpace=wrap;html=1;fillColor=#f5f5f5;strokeColor=#666666;fontColor=#333333;fontStyle=1;fontSize=14;" parent="1" vertex="1">
          <mxGeometry x="200" y="300" width="120" height="40" as="geometry" />
        </mxCell>
        <mxCell id="2LQokLUc8P4vaMHVYuuZ-16" value="" style="endArrow=classic;html=1;rounded=0;entryX=0.5;entryY=1;entryDx=0;entryDy=0;fontStyle=1;fontSize=14;" parent="1" target="2LQokLUc8P4vaMHVYuuZ-15" edge="1">
          <mxGeometry width="50" height="50" relative="1" as="geometry">
            <mxPoint x="260" y="390" as="sourcePoint" />
            <mxPoint x="300" y="360" as="targetPoint" />
          </mxGeometry>
        </mxCell>
        <mxCell id="2LQokLUc8P4vaMHVYuuZ-17" value="" style="endArrow=classic;html=1;rounded=0;entryX=0.5;entryY=1;entryDx=0;entryDy=0;exitX=0.5;exitY=0;exitDx=0;exitDy=0;fontStyle=1;fontSize=14;" parent="1" source="2LQokLUc8P4vaMHVYuuZ-15" target="2LQokLUc8P4vaMHVYuuZ-14" edge="1">
          <mxGeometry width="50" height="50" relative="1" as="geometry">
            <mxPoint x="100" y="280" as="sourcePoint" />
            <mxPoint x="150" y="230" as="targetPoint" />
          </mxGeometry>
        </mxCell>
        <mxCell id="2LQokLUc8P4vaMHVYuuZ-18" value="" style="endArrow=classic;html=1;rounded=0;entryX=0.5;entryY=1;entryDx=0;entryDy=0;exitX=0.5;exitY=0;exitDx=0;exitDy=0;fontStyle=1;fontSize=14;" parent="1" source="2LQokLUc8P4vaMHVYuuZ-14" target="2LQokLUc8P4vaMHVYuuZ-13" edge="1">
          <mxGeometry width="50" height="50" relative="1" as="geometry">
            <mxPoint x="70" y="190" as="sourcePoint" />
            <mxPoint x="120" y="140" as="targetPoint" />
          </mxGeometry>
        </mxCell>
        <mxCell id="2LQokLUc8P4vaMHVYuuZ-19" value="" style="endArrow=classic;html=1;rounded=0;entryX=0.412;entryY=1.053;entryDx=0;entryDy=0;exitX=0.5;exitY=0;exitDx=0;exitDy=0;entryPerimeter=0;fontStyle=1;fontSize=14;" parent="1" source="2LQokLUc8P4vaMHVYuuZ-13" target="2LQokLUc8P4vaMHVYuuZ-12" edge="1">
          <mxGeometry width="50" height="50" relative="1" as="geometry">
            <mxPoint x="60" y="60" as="sourcePoint" />
            <mxPoint x="110" y="10" as="targetPoint" />
          </mxGeometry>
        </mxCell>
        <mxCell id="2LQokLUc8P4vaMHVYuuZ-20" value="" style="endArrow=classic;html=1;rounded=0;entryX=0.5;entryY=1;entryDx=0;entryDy=0;exitX=0.75;exitY=0;exitDx=0;exitDy=0;fontStyle=1;fontSize=14;" parent="1" source="2LQokLUc8P4vaMHVYuuZ-13" target="2LQokLUc8P4vaMHVYuuZ-11" edge="1">
          <mxGeometry width="50" height="50" relative="1" as="geometry">
            <mxPoint x="320" y="60" as="sourcePoint" />
            <mxPoint x="370" y="10" as="targetPoint" />
          </mxGeometry>
        </mxCell>
        <mxCell id="2LQokLUc8P4vaMHVYuuZ-21" value="1" style="ellipse;whiteSpace=wrap;html=1;aspect=fixed;fillColor=#dae8fc;strokeColor=#6c8ebf;fontStyle=1;fontSize=14;connectable=0;" parent="1" vertex="1">
          <mxGeometry x="245" y="370" width="30" height="30" as="geometry" />
        </mxCell>
        <mxCell id="2LQokLUc8P4vaMHVYuuZ-22" value="2" style="ellipse;whiteSpace=wrap;html=1;aspect=fixed;fillColor=#dae8fc;strokeColor=#6c8ebf;fontStyle=1;fontSize=14;connectable=0;" parent="1" vertex="1">
          <mxGeometry x="245" y="260" width="30" height="30" as="geometry" />
        </mxCell>
        <mxCell id="2LQokLUc8P4vaMHVYuuZ-23" value="3" style="ellipse;whiteSpace=wrap;html=1;aspect=fixed;fillColor=#dae8fc;strokeColor=#6c8ebf;fontStyle=1;fontSize=14;connectable=0;" parent="1" vertex="1">
          <mxGeometry x="245" y="120" width="30" height="30" as="geometry" />
        </mxCell>
        <mxCell id="2LQokLUc8P4vaMHVYuuZ-24" value="4" style="ellipse;whiteSpace=wrap;html=1;aspect=fixed;fillColor=#dae8fc;strokeColor=#6c8ebf;fontStyle=1;fontSize=14;connectable=0;" parent="1" vertex="1">
          <mxGeometry x="245" y="-69" width="30" height="30" as="geometry" />
        </mxCell>
        <mxCell id="2LQokLUc8P4vaMHVYuuZ-30" value="" style="endArrow=classic;html=1;rounded=0;exitX=0.75;exitY=1;exitDx=0;exitDy=0;fontStyle=1;fontSize=14;startArrow=none;" parent="1" source="2LQokLUc8P4vaMHVYuuZ-36" edge="1">
          <mxGeometry width="50" height="50" relative="1" as="geometry">
            <mxPoint x="30" y="130" as="sourcePoint" />
            <mxPoint x="425" y="60" as="targetPoint" />
          </mxGeometry>
        </mxCell>
        <mxCell id="2LQokLUc8P4vaMHVYuuZ-32" value="uart_putc()&lt;div&gt;uart_getc()&lt;/div&gt;" style="rounded=0;whiteSpace=wrap;html=1;fillColor=#f5f5f5;strokeColor=#666666;fontStyle=1;fontSize=14;fontColor=#333333;" parent="1" vertex="1">
          <mxGeometry x="365" y="210" width="135" height="50" as="geometry" />
        </mxCell>
        <mxCell id="2LQokLUc8P4vaMHVYuuZ-36" value="printf()/&lt;br&gt;scanf()/&lt;br&gt;memset()/&lt;br&gt;..." style="rounded=0;whiteSpace=wrap;html=1;fontSize=14;fontStyle=1;fillColor=#f5f5f5;fontColor=#333333;strokeColor=#666666;" parent="1" vertex="1">
          <mxGeometry x="385" y="10" width="80" height="80" as="geometry" />
        </mxCell>
        <mxCell id="2LQokLUc8P4vaMHVYuuZ-43" value="" style="endArrow=classic;html=1;rounded=0;fontSize=14;exitX=0.75;exitY=1;exitDx=0;exitDy=0;entryX=0.5;entryY=0;entryDx=0;entryDy=0;" parent="1" source="2LQokLUc8P4vaMHVYuuZ-11" target="2LQokLUc8P4vaMHVYuuZ-36" edge="1">
          <mxGeometry width="50" height="50" relative="1" as="geometry">
            <mxPoint x="780" y="-50" as="sourcePoint" />
            <mxPoint x="830" y="-100" as="targetPoint" />
          </mxGeometry>
        </mxCell>
        <mxCell id="2LQokLUc8P4vaMHVYuuZ-25" value="5" style="ellipse;whiteSpace=wrap;html=1;aspect=fixed;fillColor=#dae8fc;strokeColor=#6c8ebf;fontStyle=1;fontSize=14;connectable=0;" parent="1" vertex="1">
          <mxGeometry x="350" y="-69" width="30" height="30" as="geometry" />
        </mxCell>
      </root>
    </mxGraphModel>
  </diagram>
</mxfile>
